M48
; DRILL file {KiCad (5.1.4)-1} date 08/18/21 20:25:48
; FORMAT={-:-/ absolute / inch / decimal}
; #@! TF.CreationDate,2021-08-18T20:25:48+02:00
; #@! TF.GenerationSoftware,Kicad,Pcbnew,(5.1.4)-1
; #@! TF.FileFunction,NonPlated,1,2,NPTH
FMAT,2
INCH
T1C0.0256
T2C0.0689
T3C0.1200
T4C0.1570
%
G90
G05
T1
X1.1162Y-0.8138
X1.3438Y-0.8138
T2
X11.925Y-3.9688
X12.325Y-3.9688
X2.6437Y-3.9688
X3.0437Y-3.9688
X3.3Y-1.7188
X3.7Y-1.7188
X10.05Y-1.7188
X10.45Y-1.7188
X5.55Y-1.7188
X5.95Y-1.7188
X7.2375Y-2.4688
X7.6375Y-2.4688
X8.2687Y-3.9688
X8.6687Y-3.9688
X8.7375Y-2.4688
X9.1375Y-2.4688
X7.8Y-1.7188
X8.2Y-1.7188
X10.9875Y-1.7188
X11.3875Y-1.7188
X0.675Y-2.4688
X1.075Y-2.4688
X10.7062Y-2.4688
X11.1062Y-2.4688
X1.8Y-1.7188
X2.2Y-1.7188
X8.3625Y-3.2188
X8.7625Y-3.2188
X4.05Y-1.7188
X4.45Y-1.7188
X11.175Y-3.2188
X11.575Y-3.2188
X2.55Y-1.7188
X2.95Y-1.7188
X4.9875Y-2.4688
X5.3875Y-2.4688
X5.175Y-0.9688
X5.575Y-0.9688
X5.925Y-0.9688
X6.325Y-0.9688
X4.8Y-1.7188
X5.2Y-1.7188
X11.925Y-2.4688
X12.325Y-2.4688
X1.7063Y-3.9688
X2.1062Y-3.9688
X10.425Y-3.9688
X10.825Y-3.9688
X8.925Y-3.9688
X9.325Y-3.9688
X10.1437Y-3.2188
X10.5437Y-3.2188
X4.2375Y-2.4688
X4.6375Y-2.4688
X1.425Y-0.9688
X1.825Y-0.9688
X7.05Y-1.7188
X7.45Y-1.7188
X0.7687Y-3.2188
X1.1687Y-3.2188
X8.175Y-0.9688
X8.575Y-0.9688
X1.1438Y-3.2188
X1.5437Y-3.2188
X3.8625Y-3.2188
X4.2625Y-3.2188
X9.2062Y-3.9688
X9.6062Y-3.9688
X3.675Y-0.9688
X4.075Y-0.9688
X9.3Y-1.7188
X9.7Y-1.7188
X6.1125Y-3.2188
X6.5125Y-3.2188
X11.925Y-0.9688
X12.325Y-0.9688
X9.4875Y-2.4688
X9.8875Y-2.4688
X9.675Y-3.9688
X10.075Y-3.9688
X11.925Y-1.7188
X12.325Y-1.7188
X3.1125Y-3.2188
X3.5125Y-3.2188
X11.2812Y-1.8938
X11.2812Y-2.2937
X2.175Y-0.9688
X2.575Y-0.9688
X2.925Y-0.9688
X3.325Y-0.9688
X6.8625Y-3.2188
X7.2625Y-3.2188
X7.9875Y-2.4688
X8.3875Y-2.4688
X8.55Y-1.7188
X8.95Y-1.7188
X11.925Y-3.2188
X12.325Y-3.2188
X5.7375Y-2.4688
X6.1375Y-2.4688
X2.3625Y-3.2188
X2.7625Y-3.2188
X8.925Y-0.9688
X9.325Y-0.9688
X7.425Y-0.9688
X7.825Y-0.9688
X7.6125Y-3.2188
X8.0125Y-3.2188
X9.675Y-0.9688
X10.075Y-0.9688
X1.9875Y-2.4688
X2.3875Y-2.4688
X4.425Y-0.9688
X4.825Y-0.9688
X3.4875Y-2.4688
X3.8875Y-2.4688
X0.7687Y-3.9688
X1.1687Y-3.9688
X10.2375Y-2.4688
X10.6375Y-2.4688
X9.1125Y-3.2188
X9.5125Y-3.2188
X6.675Y-0.9688
X7.075Y-0.9688
X2.7375Y-2.4688
X3.1375Y-2.4688
X10.8Y-0.9688
X11.2Y-0.9688
X1.6125Y-3.2188
X2.0125Y-3.2188
X0.9562Y-2.4688
X1.3562Y-2.4688
X6.3Y-1.7188
X6.7Y-1.7188
X0.675Y-0.9688
X1.075Y-0.9688
X0.8625Y-1.7188
X1.2625Y-1.7188
X8.175Y-3.9688
X8.575Y-3.9688
X11.175Y-3.9688
X11.575Y-3.9688
X4.6125Y-3.2188
X5.0125Y-3.2188
X6.4875Y-2.4688
X6.8875Y-2.4688
X5.4562Y-3.9688
X5.8563Y-3.9688
X5.3625Y-3.2188
X5.7625Y-3.2188
T3
X3.6877Y-4.2437
X7.6247Y-4.2437
X10.4375Y-2.1938
X1.8125Y-2.9438
X11.5563Y-1.6238
X11.5563Y-2.5637
X10.5312Y-0.6937
X11.4688Y-0.6937
X11.375Y-2.1938
X0.875Y-2.9438
T4
X3.6875Y-2.4688
X0.9688Y-3.9688
X10.4375Y-2.4688
X9.3125Y-3.2188
X6.875Y-0.9688
X2.9375Y-2.4688
X10.5312Y-1.2937
X11.0Y-0.9688
X11.4688Y-1.2937
X1.8125Y-3.2188
X1.1562Y-2.4688
X6.5Y-1.7188
X0.875Y-0.9688
X1.0625Y-1.7188
X8.375Y-3.9688
X11.375Y-3.9688
X4.8125Y-3.2188
X6.6875Y-2.4688
X3.6877Y-3.6437
X5.6562Y-3.9688
X7.6247Y-3.6437
X5.5625Y-3.2188
X12.125Y-3.9688
X2.8438Y-3.9688
X3.5Y-1.7188
X10.25Y-1.7188
X5.75Y-1.7188
X7.4375Y-2.4688
X8.4688Y-3.9688
X8.9375Y-2.4688
X8.0Y-1.7188
X11.1875Y-1.7188
X0.875Y-2.4688
X10.4375Y-2.7937
X10.9062Y-2.4688
X11.375Y-2.7937
X2.0Y-1.7188
X8.5625Y-3.2188
X4.25Y-1.7188
X11.375Y-3.2188
X2.75Y-1.7188
X5.1875Y-2.4688
X5.375Y-0.9688
X6.125Y-0.9688
X5.0Y-1.7188
X12.125Y-2.4688
X1.9062Y-3.9688
X10.625Y-3.9688
X9.125Y-3.9688
X10.3438Y-3.2188
X4.4375Y-2.4688
X1.625Y-0.9688
X7.25Y-1.7188
X0.9688Y-3.2188
X8.375Y-0.9688
X0.875Y-3.5437
X1.3438Y-3.2188
X1.8125Y-3.5437
X4.0625Y-3.2188
X9.4062Y-3.9688
X3.875Y-0.9688
X9.5Y-1.7188
X6.3125Y-3.2188
X12.125Y-0.9688
X9.6875Y-2.4688
X9.875Y-3.9688
X12.125Y-1.7188
X3.3125Y-3.2188
X10.9562Y-1.6238
X10.9562Y-2.5637
X11.2812Y-2.0938
X2.375Y-0.9688
X3.125Y-0.9688
X7.0625Y-3.2188
X8.1875Y-2.4688
X8.75Y-1.7188
X12.125Y-3.2188
X5.9375Y-2.4688
X2.5625Y-3.2188
X9.125Y-0.9688
X7.625Y-0.9688
X7.8125Y-3.2188
X9.875Y-0.9688
X2.1875Y-2.4688
X4.625Y-0.9688
T0
M30
