M48
; DRILL file {KiCad (5.1.4)-1} date 11/17/21 13:22:04
; FORMAT={-:-/ absolute / inch / decimal}
; #@! TF.CreationDate,2021-11-17T13:22:04+01:00
; #@! TF.GenerationSoftware,Kicad,Pcbnew,(5.1.4)-1
; #@! TF.FileFunction,Plated,1,2,PTH
FMAT,2
INCH
T1C0.0157
T2C0.0236
T3C0.0276
T4C0.0394
T5C0.0579
T6C0.0866
T7C0.1024
%
G90
G05
T1
X1.03Y-1.235
X1.1335Y-0.9838
X1.19Y-1.185
X1.27Y-1.185
X1.3275Y-0.9838
X1.5Y-3.3126
X1.6443Y-2.93
X1.6857Y-2.93
X1.9421Y-3.4016
X2.4688Y-3.5
X3.2188Y-3.5
X3.8438Y-3.6562
X3.9375Y-3.5
X3.9375Y-3.9375
X4.0625Y-3.4062
X4.0938Y-3.4375
X4.25Y-3.4375
X4.41Y-1.1043
X4.41Y-1.1457
X4.5Y-3.2812
X4.5088Y-3.8734
X4.5386Y-3.5615
X4.55Y-3.9987
X4.58Y-3.405
X5.0312Y-2.7812
X11.6875Y-3.3125
X11.7188Y-3.3438
T3
X10.0965Y-1.4062
X10.4035Y-1.4062
X5.2215Y-1.2812
X5.5285Y-1.2812
X10.7527Y-2.1562
X11.0598Y-2.1562
X2.034Y-2.1562
X2.341Y-2.1562
X10.1902Y-2.9062
X10.4973Y-2.9062
X9.534Y-2.1562
X9.841Y-2.1562
X6.3465Y-1.4062
X6.6535Y-1.4062
X9.159Y-2.9062
X9.466Y-2.9062
X3.159Y-2.9062
X3.466Y-2.9062
X11.8152Y-3.6562
X12.1223Y-3.6562
X4.0965Y-1.4062
X4.4035Y-1.4062
X6.0Y-3.8152
X6.0Y-4.1223
X7.284Y-2.1562
X7.591Y-2.1562
X2.9715Y-1.2812
X3.2785Y-1.2812
X1.0027Y-2.1562
X1.3098Y-2.1562
X8.9715Y-3.6562
X9.2785Y-3.6562
X3.909Y-2.9062
X4.216Y-2.9062
X6.7215Y-1.2812
X7.0285Y-1.2812
X0.784Y-3.6562
X1.091Y-3.6562
X2.784Y-2.1562
X3.091Y-2.1562
X3.7215Y-1.2812
X4.0285Y-1.2812
X6.159Y-2.9062
X6.466Y-2.9062
X9.7215Y-1.2812
X10.0285Y-1.2812
X0.659Y-1.4062
X0.966Y-1.4062
X0.659Y-1.2812
X0.966Y-1.2812
X8.5965Y-1.4062
X8.9035Y-1.4062
X4.659Y-2.9062
X4.966Y-2.9062
X7.8465Y-1.4062
X8.1535Y-1.4062
X11.2215Y-3.6562
X11.5285Y-3.6562
X8.784Y-2.1562
X9.091Y-2.1562
X8.2215Y-1.2812
X8.5285Y-1.2812
X5.5965Y-1.4062
X5.9035Y-1.4062
X1.7215Y-3.6562
X2.0285Y-3.6562
X4.284Y-2.1562
X4.591Y-2.1562
X10.6515Y-1.405
X10.9585Y-1.405
X11.0465Y-1.4062
X11.3535Y-1.4062
X11.8152Y-2.9062
X12.1223Y-2.9062
X5.034Y-2.1562
X5.341Y-2.1562
X7.4715Y-1.2812
X7.7785Y-1.2812
X9.3465Y-1.4062
X9.6535Y-1.4062
X8.2215Y-3.6562
X8.5285Y-3.6562
X1.9402Y-2.9062
X2.2473Y-2.9062
X8.9715Y-1.2812
X9.2785Y-1.2812
X7.659Y-2.9062
X7.966Y-2.9062
X1.1902Y-2.9062
X1.4973Y-2.9062
X5.9715Y-1.2812
X6.2785Y-1.2812
X9.7215Y-3.6562
X10.0285Y-3.6562
X4.4715Y-1.2812
X4.7785Y-1.2812
X2.5965Y-1.4062
X2.9035Y-1.4062
X11.6052Y-1.2812
X11.9123Y-1.2812
X5.784Y-2.1562
X6.091Y-2.1562
X3.3465Y-1.4062
X3.6535Y-1.4062
X11.2215Y-2.9062
X11.5285Y-2.9062
X11.8152Y-2.1562
X12.1223Y-2.1562
X7.0965Y-1.4062
X7.4035Y-1.4062
X8.409Y-2.9062
X8.716Y-2.9062
X8.034Y-2.1562
X8.341Y-2.1562
X4.8465Y-1.4062
X5.1535Y-1.4062
X5.409Y-2.9062
X5.716Y-2.9062
X3.534Y-2.1562
X3.841Y-2.1562
X11.8152Y-1.4062
X12.1223Y-1.4062
X10.4715Y-3.6562
X10.7785Y-3.6562
X2.409Y-2.9062
X2.716Y-2.9062
X2.6902Y-3.6562
X2.9973Y-3.6562
X6.534Y-2.1562
X6.841Y-2.1562
X1.534Y-1.2812
X1.841Y-1.2812
X6.909Y-2.9062
X7.216Y-2.9062
X2.2215Y-1.2812
X2.5285Y-1.2812
X1.8465Y-1.4062
X2.1535Y-1.4062
T4
X4.94Y-3.575
X4.94Y-3.675
X4.94Y-3.775
X5.04Y-3.575
X5.04Y-3.675
X5.04Y-3.775
X12.0258Y-0.6941
X12.0258Y-1.265
X12.1242Y-1.265
X12.2226Y-0.6941
X12.2226Y-1.265
T5
X1.6625Y-3.1187
X1.9125Y-3.0187
X8.975Y-0.8688
X9.225Y-0.7687
X8.7875Y-2.3687
X9.0375Y-2.2687
X7.6625Y-3.1187
X7.9125Y-3.0187
X11.975Y-3.1187
X12.225Y-3.0187
X9.1625Y-3.1187
X9.4125Y-3.0187
X10.7562Y-2.3687
X11.0062Y-2.2687
X7.2875Y-2.3687
X7.5375Y-2.2687
X6.725Y-0.8688
X6.975Y-0.7687
X1.1937Y-3.1187
X1.4437Y-3.0187
X2.6938Y-3.8687
X2.9438Y-3.7687
X0.9125Y-1.6187
X1.1625Y-1.5188
X8.6Y-1.6187
X8.85Y-1.5188
X5.5062Y-3.8687
X5.7562Y-3.7687
X11.225Y-3.1187
X11.475Y-3.0187
X11.0375Y-1.6187
X11.2875Y-1.5188
X11.975Y-3.8687
X12.225Y-3.7687
X4.85Y-1.6187
X5.1Y-1.5188
X11.225Y-3.8687
X11.475Y-3.7687
X6.35Y-1.6187
X6.6Y-1.5188
X5.7875Y-2.3687
X6.0375Y-2.2687
X8.225Y-0.8688
X8.475Y-0.7687
X7.85Y-1.6187
X8.1Y-1.5188
X3.35Y-1.6187
X3.6Y-1.5188
X4.475Y-0.8688
X4.725Y-0.7687
X8.225Y-3.8687
X8.475Y-3.7687
X8.975Y-3.8687
X9.225Y-3.7687
X8.3187Y-3.8687
X8.5687Y-3.7687
X11.975Y-1.6187
X12.225Y-1.5188
X6.1625Y-3.1187
X6.4125Y-3.0187
X9.5375Y-2.3687
X9.7875Y-2.2687
X2.4125Y-3.1187
X2.6625Y-3.0187
X6.5375Y-2.3687
X6.7875Y-2.2687
X5.975Y-0.8688
X6.225Y-0.7687
X5.4125Y-3.1187
X5.6625Y-3.0187
X5.225Y-0.8688
X5.475Y-0.7687
X5.6Y-1.6187
X5.85Y-1.5188
X1.0062Y-2.3687
X1.2562Y-2.2687
X8.4125Y-3.1187
X8.6625Y-3.0187
X10.1Y-1.6187
X10.35Y-1.5188
X0.8187Y-3.8687
X1.0687Y-3.7687
X2.975Y-0.8688
X3.225Y-0.7687
X5.0375Y-2.3687
X5.2875Y-2.2687
X0.725Y-2.3687
X0.975Y-2.2687
X9.725Y-0.8688
X9.975Y-0.7687
X2.7875Y-2.3687
X3.0375Y-2.2687
X9.35Y-1.6187
X9.6Y-1.5188
X1.85Y-1.6187
X2.1Y-1.5188
X10.2875Y-2.3687
X10.5375Y-2.2687
X8.0375Y-2.3687
X8.2875Y-2.2687
X3.5375Y-2.3687
X3.7875Y-2.2687
X9.2562Y-3.8687
X9.5062Y-3.7687
X11.3812Y-1.9437
X11.4812Y-2.1938
X6.9125Y-3.1187
X7.1625Y-3.0187
X7.475Y-0.8688
X7.725Y-0.7687
X11.975Y-0.8688
X12.225Y-0.7687
X4.2875Y-2.3687
X4.5375Y-2.2687
X3.1625Y-3.1187
X3.4125Y-3.0187
X10.1937Y-3.1187
X10.4437Y-3.0187
X10.475Y-3.8687
X10.725Y-3.7687
X10.85Y-0.8688
X11.1Y-0.7687
X11.975Y-2.3687
X12.225Y-2.2687
X2.225Y-0.8688
X2.475Y-0.7687
X1.7562Y-3.8687
X2.0063Y-3.7687
X3.9125Y-3.1187
X4.1625Y-3.0187
X0.8187Y-3.1187
X1.0687Y-3.0187
X1.475Y-0.8688
X1.725Y-0.7687
X2.6Y-1.6187
X2.85Y-1.5188
X0.725Y-0.8688
X0.975Y-0.7687
X9.725Y-3.8687
X9.975Y-3.7687
X2.0375Y-2.3687
X2.2875Y-2.2687
X3.725Y-0.8688
X3.975Y-0.7687
X4.6625Y-3.1187
X4.9125Y-3.0187
X4.1Y-1.6187
X4.35Y-1.5188
X7.1Y-1.6187
X7.35Y-1.5188
T6
X7.9017Y-3.9707
X10.9925Y-3.9707
X1.482Y-1.7208
X10.7535Y-1.7188
X5.567Y-2.4688
X1.482Y-3.9703
T7
X11.9037Y-0.9697
X12.3446Y-0.9697
T2
G00X1.0599Y-0.6583
M15
G01X1.0599Y-0.6819
M16
G05
G00X1.0599Y-0.813
M15
G01X1.0599Y-0.8563
M16
G05
G00X1.4001Y-0.6583
M15
G01X1.4001Y-0.6819
M16
G05
G00X1.4001Y-0.813
M15
G01X1.4001Y-0.8563
M16
G05
T0
M30
